<?xml version="1.0" encoding="utf-8"?>
<!-- Generator: Adobe Illustrator 28.1.0, SVG Export Plug-In . SVG Version: 6.00 Build 0)  -->
<svg version="1.1" id="Layer_1" xmlns="http://www.w3.org/2000/svg" xmlns:xlink="http://www.w3.org/1999/xlink" x="0px" y="0px"
	 viewBox="0 0 500 500" style="enable-background:new 0 0 500 500;" xml:space="preserve">
<style type="text/css">
	.st0{fill-rule:evenodd;clip-rule:evenodd;fill:#007367;stroke:#8CC0BB;stroke-width:12;stroke-miterlimit:10;}
</style>
<path id="Explosion" class="st0" d="M80,455.5c-3.2,0-6.7-3.6-6.7-6.7V109c0-3.2,3.5-6.7,6.7-6.7c1.7,0,3.9,1,5,2.3l58.9,67
	L229,38.6c1.1-1.7,3.7-3.1,5.6-3.1c3,0,6.4,3.2,6.7,6.1l13,137L450.6,36.3c1-0.7,2.7-1.3,3.9-1.3c2.1,0,4.9,1.7,5.9,3.5
	c1,1.8,0.9,5-0.2,6.8l-148.6,253h110c2.5,0,5.6,2.2,6.3,4.5c0.8,2.3-0.3,6-2.2,7.5l-86.9,69.5l119.6,63c2.3,1.2,4,5,3.4,7.5
	c-0.6,2.6-3.8,5.1-6.5,5.1H80z"/>
</svg>
