<?xml version="1.0" encoding="UTF-8"?><svg id="Map" xmlns="http://www.w3.org/2000/svg" xmlns:xlink="http://www.w3.org/1999/xlink" viewBox="0 0 1080.5 1081.0948"><g id="space"><rect x="0" y=".5" width="1080" height="1080" fill="#525252"/></g><g id="sky"><image width="1080" height="1080" transform="translate(0 .5)" xlink:href="sittwe-abandoned-villages-2-1.png" isolation="isolate"/></g><g id="Water"><path d="M0,.5h1080v1080H0V.5Z" fill="#142326"/></g><g id="Land"><path d="M0,.5v101.26l5.29,8.73-2.46,1.73-.25,3.7,7.9,12.84-2.72,3.46,5.19,15.55,26.42,54.32,3.95,12.09,4.19,5.44,4.69-2.97,1.48,2.47.5,1.24h-2.72l-2.96,5.18,1.48,7.9,10.86,22.96.75,5.19,7.9,17.53,20.98,43.45h.23l17.55,32.59,4.93,6.91,2.47,1.48,2.97-.25,1.97-3.21-3.46.5-3.21-1.73-9.13-14.32,2.72-.25,23.94,17.78,9.63,10.12,7.9,13.83,4.45,3.7,5.68,3.46,8.88.99,5.68-2.47-.99-11.11-1.97-6.18-4.69-5.67-9.38-7.41-4.45-9.14-.74-.98-5.18.24-1.73-1.48-1.73-7.16-8.93-20.41-1.93-7.73-3.46-1.73.25-4.2-.99-.24-.25,1.97-1.48-.49-2.47,1.48-1.72-3.46,2.22-3.45-3.95-1.49-.99,2.72-3.21.25-1.48-9.14-4.94.99-1.48-2.96.99-3.21-5.43-4.69-.5-4.2-5.92-7.65-3.21-8.4-4.69-2.47-1.98-3.29,2.47,3.29,4.47,2.36.75,1.25,5.15,10.96,3.21,3.21.74,4.69,5.18,4.44-.74,3.71,1.24,2.71,4.94-1.23,1.48,8.89h2.96l.49-2.47,4.94,1.23-1.97,3.21,1.72,3.7,1.24-1.48,1.73.25.74-2.22.99.49.49,4.69.4.23.09.51,2.97,1.24v2.96l11.11,25.18,1.48,6.17,6.66,1.49,5.68,9.38,9.14,5.68,11.85,11.35h10.12l9.87-4.69,3.46.5.49-1.24.5-3.7-4.69-1.73-2.47.49-3.46-5.18,3.95-16.3v-12.09l-3.45-8.4-1.64-2.45.15-.02-.24-.12-.74-1.11-2.47-.49.74-1.98-6.33-6.1-13.67-24.27-2.23-8.11-2.3-17.45-.44-3.76-3.18-72.15,5.19-116.53-.25-2.96-1.97-2.22v-1.98l-3.46-9.13.25-10.86,2.47-9.88,8.88-22.47,5.52-10H0M150.22,551.68l10.61,12.1,6.18,3.7,5.67.74,16.05-4.4399,4.69-3.21,2.96-6.42.75-4.94-2.23-9.88-1.97-5.18-1.98-1.48-.24,3.95,2.96,2.96-2.22,4.2v3.7l-9.14,5.43.5.9901,9.13-.25-.25,2.47-5.92.99-1.98,2.96-4.19-.49-5.68,4.2-3.95.49-4.69-2.22-1.48-1.98.24-6.91-4.44-.99,2.22-3.95-3.95-5.18,4.94-2.72,3.95,1.24v-2.47l-2.22-2.97-2.47-.49-8.15,3.7-3.7,12.35M183.05,70l.25,86.66,3.95,7.16,13.58,14.57,4.44.74,2.72-4.94,5.68-40.74,18.51-93.57,2.97-22.46.67-16.92h-28.26l-3.27,10.74-14.57,34.82-6.67,23.94M247.74,587.48l.49,3.7,7.9,9.63,27.9,19.5,16.29,17.29,9.14,5.1801,7.65,2.47,2.97-.74,4.93,11.35,74.96,57.34,34.41,29.32,29.63,32.34,35.8,31.85,25.67,15.31,20.99,9.38,11.6,3.7,78.27,15.8,3.0825,4.8607c.0791.1247.2721.0494.246-.0959l-6.0486-33.6448-1.73-1.73,1.24-17.53,5.92-12.34,5.43-4.94,2.47.49-.74-.74,4.45-13.33,2.22-3.21,4.44-5.43,2.22-7.41v-.24l.25-.99,2.47-8.15-4.94-1.48-3.95.99,4.94-1.48,4.2,1.48,3.21-9.14,1.23-3.7,7.41-21.73-3.21-14.3199,13.58-24.9301-1.49-2.47.25-4.2,2.72-4.44,3.7-.99,2.96-3.7,8.4-19.75,4.44-5.93,5.43-20.74h-4.93l-15.81-8.64-3.7-5.92-2.47-8.64-2.22-14.82v-1.23l-.25-2.47v-.25l-.98-6.42-6.1801-6.66-20.24-.5-8.89-2.71-9.1299-7.9-7.66-2.22-17.28,3.95h-5.4301l-3.95-2.72-25.43,11.85-14.07-.25-3.46,2.72-6.91-1.48-9.88-9.14-4.19-1.48-12.35-.74-4.94,3.21.25,2.72,4.2,5.18,4.94,2.96,2.22,3.71,2.96,1.73-2.96-1.2401-3.21-4.69-4.45-2.22-4.69-5.93.5-2.71,2.22-2.22,4.2-1.24,15.0601,1.98,9.1299,8.64,5.19,2.22,2.96-.25.99-1.97-2.72-1.48-5.68-10.37-4.69-4.45-4.44-1.97-3.21.49-6.42-3.45-9.88-1.73-6.66-4.94-4.2-8.39-6.91-29.14-3.21,2.97-3.95,6.91-9.88,25.67-3.45,1.24-1.24-4.94-6.67-3.7.75-1.24,5.18-.74.99-1.97-.25-3.46-3.95-4.69-6.17.49-3.46,2.47-.99,2.72.75,4.94,7.15,12.34,2.47,7.65,7.66,1.73.98,6.92-.98-6.1801-8.4-1.97-2.96-7.9-7.65-11.61-.5-.74-.24-5.18,1.97-4.45,6.91-3.7,4.45.99,2.71,2.47,1.98,6.17-1.24,3.7-3.45,1.98,3.21,1.48,1.97,5.43.74-.49,9.14-24.69,10.37-21.73,12.09-39.99v-3.71l-2.46-2.47-10.37,4.2-8.4-.24-16.79-4.7-11.11-3.45-7.16-4.69-16.29-16.3-1.48-.7v-.29l-4.47-1.83-8.62-4.09-2.7-.56-2.23-.92-2.58-.09-4.34-.9h-23.45l-9.14-3.7-9.52-2.38-4.05-1.33-1.58-.08-2.62-.66h-9.38l-16.05,4.45-10.12,5.43-5.68,6.66-4.69.99h-6.17l-1.98,1.98-21.23,46.17-3.46,10.12-4.2,30.61-4.19,14.57-3.95,7.16-1.24,9.13-1.97.99-6.91,18.27-10.13,20v4.44l-2.47,1.73-7.4,16.05M488.2,544.03l4.7.49,6.41,22.71-.24,2.47-1.98,1.73.99,2.72-6.42,3.95,5.93-3.71-.99-3.21,2.22-1.73-6.91-24.93-3.71-.49M253.17,191.22l.74,22.22.99.74-.99.99.25,5.68,1.72,10.12,7.94,33.93,2.02,9.32,1.15,15.76,1.24,1.48.25-1.23,2.22-.25,2.47,2.47,5.68,16.05,1.23-.25.99,2.47.54-.07.2.31,3.45-.74,12.35,13.83,4.44.49,3.71-5.18,2.22-.5,14.43,1.45,1.37,1.02-.25,1.24h.03l-2.5,14.07,4.69-.74,7.16,4.94,7.41.99,6.67-1.24,17.77-6.91,7.13-5.23,12.13-3.66.21-.26.78-.23,3.52-3.99,4.13,1.52,15.55-2.72,7.66.5,3.45-2.47,2.47,2.22,12.1-1.24,1.54-.33,1.42-.16,7.9-1.73,2.37-1.45.1-.03,1.14-.73,4.05-2.48,20.24-13.08,6.67-6.92,7.9-5.67,18.27-11.36.24-1.73,5.93-2.72,15.8-12.59,20.99-34.31.2-1.01.29-.48h-.19l2.41-11.6-2.96-15.31-16.3-32.34-11.6-20-43.21-58.26-29.87-54.32-2.47-15.8,2.61-13.21h-179.03l.15,2.1-3.46,40.99-5.68,40.24-2.22,30.61-.25,35.55-3.7,41.23M387.72,386.51l1.98,3.7,3.7.99,1.14.07.84.18,4.87.15,22.25,1.27,3.57,1,18.19,6.71v-.19l.49.19,19.75,17.53,12.59,7.9,22.97,5.19,5.92-.5,9.14-3.21,1.23-10.36,4.2-4.2,6.91,1.73,12.1,7.65.74-2.72-1.98-5.18.74-7.41,4.69,1.48,3.46,6.92,3.21-.25,3.95-4.2,1.48-7.65.7401,2.47-1.23,6.91-1.98,2.22-5.43,2.23-1.73-.5-5.68-7.9-.74,2.47,2.23,7.9-.7401,3.46-2.97,1.23-3.7-1.23-9.38-6.92-3.95-.98-2.97,1.72-.49,10.13,3.46,5.43.2401,6.42-7.65,29.13-6.17,16.79.49,8.64,6.17,26.66,6.92,9.88,10.61,2.22,7.16,3.95,2.72-.49,1.73-2.72,2.96-1.23,8.89-.5,5.68-7.16-1.98-1.48h-6.91l-9.88-3.21,1.73-11.85,5.93-2.96,5.67-4.94,1.4901.25.74,3.95v-4.45l7.4-.74.99-.49-.25-2.72,5.9301-.49,1.48,5.93-3.46,3.95-4.69-.5-6.17,2.22-1.23-2.22-.25,1.48-4.44,1.98-4.94,4.69-.25,2.47,1.73.25.25,2.46,8.64,1.49,2.96,3.21-1.48,5.67-3.7,3.71-3.46,1.48-6.91-.25-2.72,1.98,10.12,8.64,5.43,9.63,15.56,1.23,27.9-12.59v-3.95l2.47-4.69,8.14-7.66,1.24-7.15-5.93-12.6-5.43-.24-5.18-14.32-10.13-17.04-1.97-31.85.99-10.37,1.72-4.19-9.13-.25-2.47-2.71-.7401-6.18h-1.73l-.25-2.71,5.19-2.22-3.7-.75-5.93,2.47-5.18-3.95-.25-14.56,2.22-6.67,1.98-.49,1.97,2.96-2.22,6.17.74,3.46-2.22,9.13,6.42-.24.74,2.22v-2.47l2.71-2.22,4.94-1.48,2.96,1.23.25.99-1.73.25v5.92l-2.71,1.98.98,3.45,2.97.74,2.71-.98,1.98-5.19-.25-2.72v-.74h.25l8.39-2.22.74-2.22-2.96-3.21-.49,1.73-2.72-.5-3.7-5.18.49-6.91-1.23.24-.9901-3.45,2.71-4.94-2.22-7.65.99-1.24-3.7-1.97-.25-4.69.74-1.24,5.19.5-2.47-4.94.74-.99-.99.25-.9901-2.22-5.18,2.96-4.69-.99-2.23-3.7-2.71.98-1.98-3.7-7.65-.49-3.21,6.17-2.72.99-5.18-3.71.49-2.22,3.95-2.47,1.24-4.44,7.16,5.43,21.23-2.47,1.23-10.12,7.16-3.7h2.97l-.99-4.2-2.47-.25-3.21-2.96.25-1.23,9.38-5.68,5.68-1.48-.25-4.94,2.96-4.45,6.42,2.72,11.85-11.85,3.46-.99.49-7.9-1.48-2.47-1.23.99-4.45-2.96,1.73-2.47-2.71,2.47-7.9-1.48.24-2.23-2.96-3.21-4.94,1.49-1.23-1.24-16.3-2.22-2.47-.25-12.09-1.23-13.09,3.45-9.13-1.97,1.48,1.73-.99,1.97h-1.48l-2.22,6.42-2.72,2.22-.74,6.42,2.22,5.19,4.94,3.95,2.96.24.99,2.47-.49,2.47-7.16-3.95-11.36-10.86-1.23-7.65,8.14-1.24,3.21-6.17v-1.48l-5.18-4.69-3.95,1.48-4.2,3.7-10.86,18.02-2.47.99-2.72,2.72-5.92,11.6-2.96.99-24.45,21.72-7.16,3.21-5.92,4.94-26.91,13.34v-.25l-18.52,7.65-14.07,8.39-23.95,8.15M458.83,3.34l2.96,14.82,4.19,9.38,14.57,16.29,6.91,10.37,11.85-8.64,12.84-4.2,34.3199-6.91,13.58,2.72,10.61,6.17,3.95,5.18,4.7,9.14,1.72,10.37,6.92,10.12,11.85,9.63,15.06,9.63,19.5,10.12,24.2,6.42,16.04,7.16,6.92.25,12.09,2.96,10.37,4.44,11.36,2.47,1.23-6.17,7.41.99,4.2-1.48,3.21,1.97,2.71-1.73,6.67,2.47,1.23-.99-.74-4.44,1.73-.49,4.2,1.72,4.44-.49,1.24,1.23,2.47-2.71,2.22,1.48,2.96-2.96,1.98.74-.25-3.71,3.7-2.71-4.94-13.33-11.85-24.69-2.22-16.54,2.96-11.11,3.71-6.42,7.4-6.42,10.37-5.43,2.23-5.68-7.9-10.62-8.4-6.66-11.11-5.19-5.92,1.24-3.55-2.6h-10.53v.13l-5.92,2.71-4.45-.24-1.99-2.6h-4.44l-2.95,15.19-8.89,21.23-3.45,2.47-19.01,1.23-12.35-1.72-30.12-9.14-31.1-3.46-.25,2.47-5.4301,1.48-1.73-1.72-.25-2.72-2.22.99-13.58-1.98-3.46.25-2.71,2.72-7.16-1.49-1.73-2.22-3.46,1.24-5.67-2.97-2.47-4.93-4.94-1.48-3.21-4.2-15.31-6.67-.98-2.47-2.53-2.1h-65.5l-.11,2.84M503.26,487.98l1.24-1.48.25-2.22-1.49,3.7M556.84,151.72l9.6299,35.31.7401,1.23,7.16-2.22.99,2.96-2.47,8.4,4.19,2.96,3.21-.25,5.43-3.95,9.14-10.12,5.68.25,3.95,7.16-.74,5.43,2.22-3.95-.25-4.2,2.97-2.22-.75-7.65.99-3.21-1.97-2.47-1.2401,1.73-6.42-.25v-4.2l-1.97-1.23-1.73-4.69-1.73-.25-.74-4.2,4.45-.99-.25-1.23-3.21-.25-4.94-3.21-1.97.99-1.98,4.45,2.96,5.92-2.71,1.98,2.22,2.96-1.98,8.15,4.2,2.96-.99,1.48h-2.46l-.5-2.47-10.12-1.73-2.96-2.71-1.98,1.23-.74-3.21-1.23,1.48-1.73-.49.25-2.22-2.97-1.48v-4.7l2.22-5.92-5.92-10.62-1.98-1.23-1.97.49M570.17,166.78l.74,2.72,1.48.25.74-2.72,2.72,1.23.7401,3.46,5.93,1.98-3.71-7.66-.99-9.87,1.24-4.2,2.22-1.48-.9901-3.46,2.47-.25,2.22,4.2,9.63,3.46v-1.48l-.98-1.73-7.16-2.47-1.98-2.72.74-2.22-.99-1.48-2.71-1.97-1.48.74-2.97,2.22.74,2.96-1.97.99.9901,6.42-3.21,1.48,2.22,5.43-.25.99-3.95-.5-.4901,1.49.9901.49-1.98,3.7M572.15,234.43l1.23,10.37,1.23,1.23,3.96-.49v-1.48l11.85,3.45,9.38,11.61,5.68,10.12,3.45-.25.5-2.22,10.86-5.43,4.69,1.23,10.86-12.34,3.21-5.68,1.98-18.76,6.17-22.22v-1.98l-2.47-1.72.25-1.98,2.22,2.47,3.46-1.24-1.73-2.22-6.17-1.23v2.22l-5.19.74-.74-1.23-3.21.24,1.98-3.21-7.41-3.45-1.73-.99.49,2.22-5.92,2.72-3.21,5.68-4.69.24-2.47,1.98v4.94l-1.73,1.48-3.7-4.69-3.46.98-1.97-1.72.24-12.84-1.23-1.48-4.69,1.48-.25,1.73-9.13,10.12h-1.48l2.71,1.73,2.47,11.11,3.46,5.43-12.59,1.48,1.97,7.9v8.89l-2.71.74v1.48h-2.47l-2.23-7.9-1.72.74M592.88,451.69l.75,1.23h3.2l11.61-5.18-.25-1.48,6.67-7.9,10.86-.5v1.98h1.73l-.74,1.97-11.11,2.72v1.73l-2.47.74-1.48,3.95-6.17.74v2.47l-2.47-1.24-8.64,5.19.49,6.66-1.23,1.24,1.23,7.9,1.23,1.97,4.94.99,1.24,3.95,1.48-.74,1.23,6.42,4.69,8.64,2.72,2.72,1.73-.5-1.73,3.21,4.44,3.95,7.9,15.06.99,7.16h-1.48l-.74,3.21-10.12,2.22-4.45,7.16v3.21l9.88-1.97,15.55.74,5.68,1.97v1.49l10.12,5.92,22.72.74,1.23-2.71-.49-3.21h2.47l3.2-4.2,10.87-5.19,2.71-4.69v-18.27l-2.71-6.91-.5-1.48.25-3.46,3.46-4.93,11.35-2.23,2.72-2.22,4.44-11.85.25-5.92-9.38-6.42-4.44-6.67-1.98-7.9-9.38-4.69-2.22-3.95h-1.73l-.74-5.43-3.95-1.24-8.64.74-5.44-1.48-2.22-1.97-2.47-11.85h-1.48v-1.73l-3.21,2.96-3.95.99.74,2.47-5.43,2.47v2.22h-3.21v-1.48h-1.48l-1.73,3.21-2.22-3.21h1.48l-.74-1.73,3.95-.74-.74-3.21-7.16-.99-1.48,2.72-9.38-.74v-1.73l-8.64-3.46h-3.95l-3.21,1.98,3.21.74-1.48,3.21h-1.73v-1.48l-5.43,3.7-1.49,7.16h-1.72l-.74,3.21,3.21,1.48-2.47.99-2.23,4.69h-2.46v4.69h-1.49M605.72,367.01l4.45-.25.49-1.23,2.96.49,3.21-1.98,4.45,3.96,6.17.24,6.91-2.96-1.23-3.21h-2.22l-3.21,2.47-.99-6.17-3.21-2.47.25-9.38-2.97-1.24-5.4301,4.45-1.23-.25-2.47-5.43-4.69.98,1.23,2.72-1.48,1.23.74,4.7-1.73,1.72,1.2401,2.97-1.2401.74v7.9M605.97,106.54l8.64,5.43.49,4.94-2.46,2.96v2.47l6.17,3.95-.25,11.85h2.22l1.24-10.37-1.98-.74-3.45-7.16,3.45-1.48v-3.21l13.33-.49,1.73.49-1.97,2.47.24,2.72,1.73.49v2.96h2.72l.24-2.22,7.16-1.23,5.19,5.92,2.22,4.69,1.24,8.65,4.69,4.44,2.47.25-3.71-3.95.99-6.18-1.73-1.72-.74-6.18,3.46-7.16-16.54-4.44-2.97-.99-.74-2.47-20.49-4.19-3.95-5.19-7.9.25-.7401,1.23v3.21M607.94,166.04l2.47,1.24,3.46-.99,1.73-5.19-2.72-2.46-.99,4.19-2.22.5-1.73,2.71M620.29,323.8l.7401,5.43,1.48-.74v1.48l2.72.99,21.72-9.63v1.73l4.69-5.18,4.69-1.73,6.18.49.98,5.43,3.46-.74.49,1.48h-3.95v4.2l2.97,1.48v1.48h4.69l.49,3.95-1.48,3.96.9901,2.46h3.21l-.74-2.46,1.23.74-.49,3.21h1.73v1.72l3.7-4.44,1.73-.49v2.46l3.21-.74v-3.21l2.96,1.24,1.97-2.72-.24-4.93h2.22v-2.97l2.47.25,2.96-2.22,3.21.24-1.23-4.69,5.18-1.48-.74-3.21-2.47.74-1.48,2.47.25-3.21,1.97-.74-.74-1.73,3.95.99.7401-6.42-6.91,3.21-1.73,5.43-10.86,3.95v-1.48l-6.42-2.47-2.22-15.06-13.34-.98-3.2-1.98-2.72-3.95-.49-3.95-2.97.25-3.21,4.44-4.69,3.21-5.43,14.81-4.94,2.97-10.12.24v5.68l1.73.25.74,1.97h-3.21v-1.48l-2.47,1.24-2.96-1.24M622.76,11.24l24.93,7.16,35.06,14.32,4.45.5,4.93-1.98,2.22-4.44v-7.41l-6.74-18.89h-64.19l-.66,10.74M629.42,281.83l7.9-2.22-4.19-.25-2.72.74-.99,1.73M640.04,331.95l.7401,5.43,4.2,5.93-3.46,4.69,3.7,3.7,2.97.74,4.19-1.23v-4.45l2.23-1.97,7.65-.25,5.43-2.71-7.65-14.32-3.21.24-.74,2.47-1.98.99-2.96.25-1.48-2.47-2.96-.74-6.67,3.7M650.41,280.35l8.89,7.16,4.44.74,7.41-.25.49-1.72-.74-8.89-1.48.49-2.72-2.47-2.96-9.13,10.62-9.38,2.22-3.95h4.94l-1.73-2.97,4.44-2.96,10.62,1.48-4.45,4.2-4.44,10.86,2.72,7.41,8.14-10.12,5.44,2.96,10.86,1.73.25,1.73-6.67,5.18-5.93-1.23-.74,7.65-2.71,4.44h-6.17l-6.92,1.98-9.87-3.21.49,4.2,2.96,3.95,2.23.49.98,2.22,2.47.5,1.98,2.22,2.47-.25,5.92-4.2.99,2.72,2.47.74,10.61-1.98,5.68-2.96v-11.6l3.71-6.17-.5-1.48,1.48.24-.24-1.73,1.72.74,1.24-2.71.49-.99.99,1.73-1.73,5.43,3.95,2.96.7401,4.69,7.66,4.2,1.48-2.96,3.7,6.66-6.17,2.47,4.44,6.67-1.48,2.72,3.46.49-.25,2.96,6.91.99,1.98,3.46-.99,3.7-1.48.99.7401,5.18.38.15.71,3.34-.1,1.94,4.19,2.22.25,8.15,2.96.74,4.2-4.19-.99-2.97h2.47v-2.47l-1.73-1.97-.02-.74h.27l-.32-1.3-.15-3.93.39-1,8.97-11.79-4.69-.5,1.23-4.2-2.96,1.49-.25,1.48-2.71-.63-2.96-1.59.98-1.98-.53-.32.04-.17-5.04-3.36,2.57-6.77v-2.84l.2-.69,2.27-.91,2.59-.86,1.11,1.11.45-.29.05.04,2.22-1.48-.74-4.69,2.47.74.24-1.24,2.23-.49,2.96,2.47,1.48-1.48.74.74-.99,1.48.0099.08-.25.41.4901,3.46.21.17.04.32.93.47,2.77,2.25,1.41-.16.32.16-.01-.19.5-.06-.47-6.31,1.71-.85,1.97,5.19,1.98-.25.49-2.22,5.18,6.17-1.97,1.24,1.97,3.45v5.19l-2.46,1.23-2.47-.74-.21.29-.29-.04-.74,1.48,2.47,1.48.2,2.03-1.43,1.92,2.47,3.7,2.27-2.96h1.06l.72.21.76,1.52.55,1.31-1.17,1.28-1.23,1.11.12.12-.12.13,1.48,1.73.86.37.37.37.19-.13.31.13,1.97-1.73,3.71,2.22-.74,7.41h.51l-.02.74,1.97-.5,5.19,1.98,1.55-2.22h2.03l1.85.24,2.22,2.72.74,5.68,2.22-1.98,1.73.25,1.73,3.46h3.21v3.7l-2.22-.25.9901,4.2-.7401.99-3.21-2.47-.5,2.72,1.24,2.22-.5.98-2.71-.24-1.48-2.72.24-6.17,1.48-.74-1.23-2.47-5.43-1.97-6.91,1.48-3.46-3.46-1.98-7.65-7.16-.74-1.72,4.44.74,3.46-2.97,7.16-9.62,6.42-2.97-.75-6.66-8.39-1.73-.49-7.9,8.64-2.72,9.13.25,5.43,1.73,1.98,14.56-.25,2.97,1.24,2.96,1.97,2.22,5.68.74,4.69-2.71,10.12-3.71,7.41-.74,8.89,2.47,3.95,13.58,10.12,4.44,7.65.5,4.94-1.48,16.54-4.69,26.42v15.31l5.1801,10.86,10.12,9.38,8.89-11.6,40.4901-40.24,27.9-33.58,2.71-5.68,1.48-3.21,4.2-7.9,7.66-8.64,24.9301-39.75,20.39-29.13h.6l2.78-4.82,3.88-5.55,18.27-32.84,6.67-22.71.36-2.74.13-.47,4.2-31.85,3.7-16.29v-7.9l-8.15-5.43-7.65-9.88-8.89,8.39-9.87,19.51-3.46.99-9.13-4.45-6.92-15.8-3.45-2.47h-4.2l-3.7-2.22-6.67-13.83-10.12-27.15-2.72-2.72-11.11-5.92-3.45-4.2-2.97-7.65-.74-6.18,3.21-3.45,6.17-.25,15.81,3.21,2.71-3.95-.7401-4.44-4.6899-5.68-11.36,2.96-5.43-.25-7.9-3.21-4.2-5.18-5.67-11.36-3.46-22.22-2.72-4.2-5.18-3.45-6.91-.25-2.97,2.47-5.18,15.06-10.12,13.58-2.97,3.46-8.64,10.36-15.55,13.83-3.7,10.37-4.45,4.2-5.92,2.47-.74,12.09-2.97,6.42-5.92,6.42-3.95,2.47-14.82,4.69-10.86,6.91-5.92,5.44-13.83,8.14-8.89,9.38-10.12,14.82-.49,3.45,1.48,1.98,14.81,5.68,7.16,7.4,3.7-2.47,1.73.5-2.47,4.2-.68,8.44-2.86,4.49-.52.7-9.27,5.13-1.58.88-2.64-.85-.22-.77-2.96-.25-6.18.5-1.73,1.72-1.48-.49.25-1.98-4.2.5-4.69-2.96-.4901,2.96-9.88-1.48,2.72-1.24-.15-.69.4-.29-.6-.6-.14-.64-.38.12-.12-.12-7.54,1.29-.36-.05-.11.13-.63.11-.71,1.57-1.05,1.31-5.15,1.57-.25,2.22-4.69-.74-5.93,3.95-.4901-2.47h-1.97l-2.97.74-2.22,2.96,3.95,3.21-2.96.25,2.96,6.17-2.96.74v3.21l-3.21,3.95.9901,5.19-.9901,1.97M659.3,129.5l7.16-.49,7.9,1.97-1.73,1.49,7.16,2.46,1.48,7.9h1.73l-.5,2.47,2.72.74,3.95,10.13,4.69,1.97-.74-2.71h3.21v-1.49l2.22-.49,1.98-2.71v-6.42l.98-.5.25,2.22h1.48l-.74,10.13,6.42.49,1.48-3.46-2.22-.98.74-.99,2.72,2.22.24,1.98,7.9-.74,1.73-2.72h2.22l19.26,6.17,4.69-1.48,2.72,1.73-.5,2.22,22.72-9.13,5.18-5.44,1.24-7.16-.99-7.16h-1.73l-2.22-3.45-4.44,1.48-1.98-3.7-13.08,3.45,1.97,3.21.25,3.71-4.94,3.95,3.7,1.23.25,1.98-1.48-1.24-3.71.25,2.47-5.68,2.23.49.49-2.47-.99-2.22-5.1801-1.23-3.71.99,3.95,3.45-5.92-1.23.49-2.22-6.42,2.46-33.08-3.45,3.46,7.4-1.98,3.21-3.7.5,3.7-5.19h-1.48v-2.47h-1.73l-1.48-3.95-1.97-.98-2.72-.5-13.33-1.73v-1.48l-11.11-1.72v-1.49l-7.65-2.71-5.68,1.23h6.42l-1.73,2.72-4.69.25v4.93M667.94,170.49l.99,2.71h5.43l.98,3.71,2.47,2.22,1.98-.74-1.73-3.46,2.72.99,1.97,2.96-.74-3.21,1.98-.25,4.93,4.94,3.46-.99.25-1.23-4.2-5.19.49-4.19-2.22-4.94-4.94-2.72-7.16.5-4.93,8.15-1.73.74M672.88,423.3l1.97,4.69-1.23,7.16,5.43-.5,3.21,1.49,5.18,9.13,5.93,3.21v1.48l6.17,1.98,2.72-8.89-3.95-11.85,1.23-7.16h1.48l-3.46-8.64-2.71-3.21h-2.47v-1.73l-3.7-.99h-4.94l-2.22,1.24-1.48,6.91-3.95,1.73v2.22l-3.21,1.73M678.06,552.67l8.64,11.85,2.72,8.14v6.1801l1.97.74,1.98,11.11h1.48v-1.73l2.47.74-1.48,3.21h1.48l-.5,1.73,12.35,4.69-.5-3.21,1.24-1.24,4.69-1.23,6.17-8.15,8.64-5.92v-1.73l7.16-3.95v-1.48l14.82-6.67,5.43-3.95,4.44-5.92.74-3.95h3.21l-.4901-1.73,1.73-.25,2.71-3.7,1.98-5.43,2.22.49,1.23-1.24,4.2-6.66,1.73-.49.74-2.47-2.47.98v-1.72h2.47l2.71-5.44-.49-3.95,3.95,2.23,1.73-3.71,5.4301-4.9301,1.48-7.91-4.69-2.22-.25-2.47-4.93-6.17-4.69-12.84-.74-10.86,5.43-35.55v-13.58l-3.46-8.64-3.21-1.98-2.22-3.45-8.64-5.68-2.72-3.95v-5.43l4.2-14.32h-2.22l3.7-9.88-1.48-7.16-16.79,1.48-.25,1.98-3.45,1.97-.74,2.23,7.65,4.69.99,4.69-2.96-.74v3.95l-2.47.99v2.22l-7.16,2.47-.74-1.73-2.23,1.97-1.72-.24-1.4901,4.69h1.4901v3.95l-8.65-2.47-.24,12.59,1.97,3.95,6.18,6.42,2.71.74-.25,3.95,4.69.74-1.48.99,1.48,6.17h-1.48l.74-1.48-3.95.25-1.72-1.49-7.66.5-2.47-6.42-5.4301-2.47-.74-2.96-6.42,1.48.5,2.47-4.45,2.22v1.73l-8.64.99-1.48,1.23.49,9.63,2.23,7.9-3.95,10.86,1.97,2.72.74,5.68,1.48,1.23,1.98-2.47,1.97,3.21-2.71.25,1.23.99,5.19,4.69,2.71,5.92-3.45,16.05-8.15,6.42-11.85,1.97,4.19,13.34.99,7.9-.74,11.6-.49,2.22-.99-1.73-2.72,3.71-12.83,8.88v1.49l-2.23.74-.49,3.95M684.23,250.48l3.21,1.97.5-.99-3.71-.98M685.96,1013.6l1.73,2.47,3.7.25,2.47,4.2,4.69,2.96,4.69,5.6801,14.32,12.09,4.69,1.73,3.95,4.4501,6.18,18.7599.74,6.67-3.14,7.64h106.6l-1.01-2.21-2.22-.74-.24-3.4601-4.45-4.2-3.46-4.1901-5.43.74-1.23,1.2301v-.25l-.74-2.4601-1.98-3.46-1.73-8.64-3.95-3.95-1.23-3.2101v-2.96l2.47-4.7-1.48-8.88,2.22-3.7101-1.48-14.0699.99-7.16-3.71-8.39,1.48-9.88-2.71-3.21-1.73-8.39-3.46-1.24-3.21-7.4-2.96-3.21,1.24,4.19-7.41-.98-3.46,1.97-10.12-1.97-15.06,1.23-8.89-.49-2.71-6.42-3.46-2.72-2.72-5.43-1.48.5-.98-1.24-1.73,3.21-3.46,1.48-4.69-2.47-2.96,3.95-3.71.25-.49-1.48-3.46.49-5.4301-6.66-1.97.98-4.94,8.15-3.95.25,3.95-19.2599,2.96-1.48,2.22-3.7,10.13-6.42.74-6.92,2.96-2.96,2.47-2.22.25-.25h.24l.25-.24,16.54-15.56,2.72-5.6801-3.71-.49-3.45,1.73-10.62,8.64-24.44,29.13-3.46,8.15-3.95,26.91-2.22,3.46-2.96.98-1.48,19.26-2.47,10.37-3.46,5.18-.74,5.68M740.77,332.2l3.95,1.72,3.95-.74.99-3.95-4.69-1.97-.25,1.73-3.95,3.21M756.26.5l3.27,1.86,12.1,10.12,2.96,4.2,3.46,11.85,8.89,5.43,4.69,5.68,3.21,8.14.99,9.63-1.24,15.06.99,8.15,5.43,6.91,5.18,3.71,7.41,2.71,2.96-.74,19.51-22.96.99-8.39,2.22-3.95,5.92-4.45,3.46-.74,9.8701,3.46,7.41,8.64,2.47,18.52,2.47,8.39,3.46,7.16,2.71,2.47,6.91,2.22,7.9-1.48,13.83-13.83,4.69-13.33.99-16.54-2.96-3.46-3.71-1.23-11.35-.25-5.68-3.95-1.48-3.7.98-24.69-2.47-8.15-7.72-12.47h-120.72M760.52,290.47l.49,1.48h5.93l.99-3.45-1.73-.99-5.68,2.96M762.25,591.18l1.23,8.15,16.3,35.06,12.59,19.25,7.16,6.67,8.39,3.21,33.09,1.73,11.11-.74,3.2-2.23,7.16-66.16-.49-33.58,3.21-33.08,5.43-24.69,13.58-43.45,2.47-15.56-.99-.49-8.39,6.42-21.48,23.7-25.92,31.11-33.33,50.36-8.65,9.63-23.7,19.51-1.97,5.18M764.47,325.78l1.2401,1.23,9.13-.24-.9901-3.46,1.73-1.48,1.23,1.48.5-1.24-1.73-1.72-.25-10.87-4.93-.49-3.46,3.95,2.22,1.48v4.69l-3.7,2.22-.9901,4.45M766.94,78.15l.49,9.38,5.19,17.28,1.73,10.62,4.9301,7.65,4.9399,4.69,8.15-2.71,2.96-10.12,2.47-3.95,15.31-11.85,1.23-3.71-13.08-5.92-8.89-10.62-10.62-27.9-4.94-5.18-5.43-.5-4.19,5.19-.25,27.65M767.43,298.87l.25,3.45,5.43-5.18-.99-1.48-4.69,3.21M774.35,306.77l2.71-.74-1.23-1.73-.99-.5-.4901,2.97M779.53,314.17l.99,4.45,2.71,3.21,1.73-2.72-3.7-4.2-.25-3.45-1.48,2.71M841.99,796.59l4.2,6.91.25,2.72,10.61,13.08-.49,5.93-2.72,2.96-1.23-.25,1.23,3.71,8.15,9.87,3.7-2.22,2.72,1.24.9901,2.96-1.98,4.69,5.68,6.67,4.94-.5,4.94,3.7-1.73,7.66,2.22,6.66-3.21,2.47,3.46,16.54,1.72,3.46,4.7,3.21h2.96l4.2,5.43-1.24,3.95-6.17,2.22-1.24,4.94-4.9301,7.9v1.24l4.19,1.48.5,1.48-3.95,3.21-2.97.4901-4.44,4.69-3.46,8.4-8.64,12.34v4.94l3.71,7.65,8.14,9.88,10.87,20.24,18.51,4.2.99,1.23.99,4.7-1.98,5.18,4.94,5.6801,2.47,2.47,2.72,2.96,8.88,4.2001,2.23.98.49.25,8.15,3.7,5.92,4.2001,12.84,15.7999,1.73,4.9401,4.44,1.98,3.46,3.45.49,5.9301-3.95,1.97-8.15-12.34h-1.23l1.23,5.6799,5.68,8.39,12.51,6.41h108.97v-266.79l-8.4-2.8-2.97-.25-15.3,4.94-19.01,1.48-29.6299-6.66-9.13-.5-4.2-1.97-6.67,1.48-22.46,9.87-8.64,2.47-18.03,2.72-18.76-1.73-.74,1.23-2.47-.74-26.66-14.56-13.83-3.95-21.97-10.13-1.24-1.72-7.9,3.7M850.39,777.58l.49,4.2,6.91,10.12,4.2,1.97,2.72-.49-8.4-11.36-4.69-4.44h-1.23M878.04,119.87l2.96,9.39,3.21,5.18,6.42,4.94,5.68,1.73,3.21,3.7,15.55,40,2.96,1.72,6.18-2.22,4.19,6.17,4.2,12.84,7.41,5.19,3.95-.5,3.45-9.13,5.4301-9.38,8.4-8.89,1.97-.74,4.2,1.73,6.67,8.14,4.19,2.47,7.41-30.12,2.47-13.58-.4901-26.66,5.1801-48.64-.4901-7.65v-5.68l.2401-30.37-2.91-29.01h-108.73l8.2,14.94,1.48,6.17.49,7.9-1.72,18.03,3.45,2.96h10.86l6.18,2.22,2.96,2.96,1.48,4.2-.74,13.83-3.21,12.83-11.85,13.58.49,1.73,4.45,2.96,2.22,4.2.74,3.46-1.23,6.66-9.14,1.48-14.32-3.95-2.96.5-.7401,2.71M884.7,772.89l13.83,15.55,14.0699,3.46-.24-1.48-18.77-14.32-7.16-4.2-1.73.99M910.63,750.18l1.97,22.96,7.66,5.92,8.39,3.7,17.78,2.97,24.19.98,12.35-2.46,6.66-4.7,51.11-45.92,32.59-19.99,6.67-3.08V.5h-55.0601v.13l-.25,36.54,1.4801,26.17-1.4801,42.96,7.16,19.75.49,6.66-.49,51.11-2.22,5.43,1.97,12.84h-1.48l3.46,11.11.74,7.9-.74,32.34-1.98,15.8h-1.48l-.74,15.31-1.73.49.74,4.69h-1.48l-1.23,10.12-8.15,22.72h.34l-.34.99-1.73-.75v3.21l-1.48-1.48-1.48,2.23-1.48-3.46-3.46,5.68-4.2,6.42-4.19,1.23-4.69,4.44-16.3,27.41-4.94,11.36-3.45,16.29-5.68,11.6-1.48,1.98-2.22,3.46-8.65,31.1-5.18,12.35-18.27,63.45-8.15,58.02.5,29.13-2.72,17.28,6.91,7.41,2.72.74,24.69-4.45,2.71.5-25.92,4.93-4.44-.74-7.41-6.66-3.7,28.88,3.21,34.57-5.93,35.06v8.39l2.22,6.67-2.71,10.37Z" fill="#365359"/></g><g id="Hillshading"><image width="1080" height="1080" transform="translate(0 .5)" xlink:href="sittwe-abandoned-villages-2-2.png" isolation="isolate"/></g><g id="Water-Body" opacity=".14"><path d="M77.67.5l.7,1.12.99,12.09,5.93,7.41,5.92-.99,5.43-7.16,3.46-1.23,9.38,8.39,14.07,7.41.74,3.95-7.4,9.38-.99,4.2,1.23,3.21,6.18,7.4,3.95,8.64,5.43,7.66,11.6,10.37,3.46.74,2.22-.99,13.83-17.28v-1.98l-4.94,3.71-9.88,13.82-3.21.25-11.85-11.11-10.86-18.52-4.94-4.93v-2.72l7.66-11.36-1.24-6.42-13.58-6.91-7.16-6.67-3.45-1.48-4.69.74-5.44,6.92-4.19,1.73-4.45-5.44-1.92-13.95h-1.99M317.11,476.38l2.97,8.64,2.96,4.2,7.65,6.42,10.37,13.33-1.23,3.45-9.14,6.92.99,5.92,20.24,18.27,7.16,4.6899,5.19,2.22,7.16-.24,15.06,3.45,12.84,6.92,1.23-2.23-12.1-7.4-27.65-5.43-17.77-13.34h0l-4.94-3.7-3.95-4.6899-.99-2.47,1.23-2.47,6.92-4.9301,1.48-2.97-.5-2.47-7.9-11.35-8.39-8.4-5.18-8.89-.5-3.95,5.68-25.67,6.91-13.09,1.98-8.39-7.16-23.46-4.69.99,4.44,7.9,3.46,16.05-.5,4.94-7.9,16.29-5.43,24.94M400.56,564.76l1.23-.24.75-2.97,1.97-.24,8.39,1.23.75-4.94,2.46-.98,4.45,1.23,4.69,3.46,1.48-.74-.49-3.21-3.21-1.73.24-1.98-2.22.74-2.71-.74v-.2401h-1.49l-1.72-.5-2.97,1.2401-1.48,5.92-9.38-.74-.74,5.43M425.5,561.55l4.93,4.69-1.23,9.39,3.46,1.97.49,3.46-5.68,21.97.99,12.35,5.92,4.44,1.73,6.67h2.96l2.23-1.73,2.71,1.97,3.21-.24,9.14-2.97,2.71,2.72-2.22-5.93-7.16.99-8.89-1.97-3.21,3.95-4.93-8.89-2.97-12.1,4.2-16.54,1.73-2.47.24-5.9301-2.96-5.18,2.22-4.2.25-5.43-.25-.99h-9.62M476.11,612.17l1.23,2.96,5.19.74,3.21,2.22,1.23,10.86h1.23l1.24-5.18-1.98-7.41-3.95-2.71-7.4-1.48M552.15,697.59l8.15,19.2599,2.46-.99.75-2.96-1.49-1.2401,1.98-2.22,1.23,2.22-1.23,3.21,1.73-.99v1.24l2.71-.25-.24-7.9,1.97,2.72-.25,2.71,1.98,1.48,1.48-1.73-2.96-13.57-1.98-3.95-12.59,3.45-1.73-1.23-1.97.7401M555.36,315.9l.99,9.88,4.44,2.96,2.22-1.97.99-3.46-1.24-15.8.99-2.72,3.46-.49,2.22,5.92,3.7.99,2.72-5.18-1.24-.99-1.97,4.44-1.48.25-2.47-5.18,1.23-2.97-.74-.98-5.18,2.22-2.72,4.19-.2401,4.7-1.73,1.72h-3.46l-.49,2.47M557.09,322.57l.49-5.19h3.95l.49,5.93-1.23,2.47h-2.72l-.98-3.21M572.15,318.86l3.95,7.16,3.95,1.49,1.48,2.96,2.71,1.48,2.47-3.21-10.86-5.93-2.47-3.45.74-3.46h4.2l11.85,9.38,2.47.5,2.71-.74.7401-2.97-2.22-2.22-.99-3.95-.98.25.98,3.95,2.23,2.47-.25,2.22-1.98.49-13.33-9.38-5.68-.49-1.72,3.45M581.03,308.74l4.2,4.94,5.93-.74.4901,2.22-1.48.99,2.71-.74-.98-3.46-4.45.25,2.97-2.47-2.72-1.23-.99,2.46-1.97.5v-4.2l-3.71,1.48M614.12,607.97l4.19-4.6899,1.73,4.6899-2.22,2.96,1.48.74,2.47-7.16,4.2-.49.98,3.21,3.71-1.24-1.48-2.71h-1.48l1.97-2.22,1.98,4.44,1.97-.25-1.97-5.92,1.48-.99,2.22.99-.99-1.98,5.43-2.96-1.23-1.23,2.96-3.21,6.17,3.7,2.47,3.21-1.48,1.97,1.98,1.73,6.42-.24-.25-1.24-5.68-.74,1.73-2.47-2.47-.49-.49-2.22,2.22-2.72-1.98-.74-4.44,2.22-.5-1.97-3.7-2.47-2.96.98-.74,3.21-7.16,6.18h-1.98l-.49-1.98,3.7-7.65,7.16-4.2-1.73-.99-5.92,3.95-.9901,2.97-2.22-3.21.74,5.43-9.63-.25-.74,1.98,8.89-.25-1.48,6.42-2.72,2.47-6.42-.25-2.71,5.68M636.58,698.58l4.2.74,12.84-12.59-10.12-4.94-1.73,6.66-3.46.99-1.73,9.14M651.64,699.07l.25,2.72,1.48-.25.25,1.73h3.46l.49-1.73-.99-2.72h-4.94v.25M660.28,584.76l6.42-2.71,3.46.74,1.48,2.96,3.7.99,1.98-.5.49.99,2.47-1.97-.9901-.25-.49-1.73-1.73-.4901.74,2.96-1.23.49-3.95-1.23-.25-1.98-2.71-1.97-8.4,1.48-.99,2.22M727.68,265.04l2.23.74-1.98,2.47,1.73,4.45,1.48.49-2.22-3.7,2.22-.25v-3.7l1.24.24-.99-2.71,1.97-.5-1.23-1.23,4.44-2.22,5.19,6.42h1.73l2.96-5.68h-1.24l-1.72,4.44-1.73.5-1.73-1.48-1.48-2.47.49-1.48-1.73.24-1.23-3.21-1.73-.24-.25-2.72,6.92-1.73-.25-1.23,6.42-7.41-5.43,3.21-.74,2.96-1.48-.98-2.72,2.71-.99-1.97-.49,2.22-2.22,1.48-1.98-.49,1.48,1.23-.99,1.73,2.47,4.2-2.47-.25-2.22,2.47v2.22l-1.73-.74v1.97M814.84,190.24l5.43,1.73,2.47,2.46.49,13.09,9.63-3.95,8.64-8.89,1.48-3.21,4.69,3.21,2.72-2.96-.5-1.73,2.23.99,2.46-1.24-1.23-2.47,5.6801-4.93v-2.23l-.9901,2.47-5.43,4.69-.49,3.21-2.72-.74-2.22,4.2-3.46-4.2-7.65,9.63-8.89,5.93-2.47-.74.74-7.41-.99-2.22-1.97-2.72-7.65-3.7v1.73M815.08,257.88l11.11,1.24,3.21,1.97,2.22,4.45,1.24,10.12,4.69,3.46,2.47,3.95-.25,2.47-10.86,14.31-2.22,7.41,3.95,9.63-1.98-.99.7401,2.47,2.22-.74,12.1,2.22,3.95-.74,7.74-14.75.38-.41,3.41-1.63h2.84l3.41,1.98,4.44,18.27h.04l1.94,7.9-2.72,15.06v12.59l1.98,6.17,2.46,2.72.99.99,10.37,6.91,2.22,6.66-9.87,15.06-.5,6.67,3.21,7.9,1.48-3.21-3.2-5.43.98-5.93,8.89-12.09.4901-5.19-2.71-6.17-9.88-6.42-3.95-4.44-1.48-13.09,2.96-18.02-1.98-8.64h.26l-4.45-18.27-3.95-3.7-.24-.03-.25-.22-4.94-.25-3.7,2.72-.06.1-1.1801.88-3.54,8.12-2.92,5.56-1.45.28-7.24-.71-4.58-.94-1.98-2.23-2.16-4.46-.28-1.17.45-4.69,11.85-17.28.25-3.95-3.7-5.93-4.69-2.96-.99-11.85-4.94-3.71-8.64-.24-1.39-2.08,1.39-12.49,6.42-8.39,2.71-.25,8.89,4.44,5.68-4.19.74-4.94-1.97-9.38,1.23-6.42-1.48-1.73-3.7-.99-11.61,5.93-1.48-2.72.25-3.95,1.73-1.97-2.97.24-.49,5.93,2.22,3.95,4.69-.99,8.15-5.18,3.21,2.22-.99,6.66,1.98,10.37-.74,2.72-3.71,2.47-10.86-3.95-.46.41-.53-.16-9.38,9.13,1.73-.25-2.72,15.8M907.66,24.33l6.92,6.67,3.7-.25,5.43,3.21,1.24,5.92-.99,6.42.74,10.62,8.39,16.79,8.4,4.69,3.7,4.44v7.41l-.99,1.23-6.17.74-.9901,3.21,11.36,20,2.22,6.42,3.21.25,3.95-5.44-.4901-14.31,2.22-4.7,9.38-1.48,6.67.74-.25-1.97-16.29,1.23-2.72,4.2.74,14.81-3.95,5.93-1.97-.74-.99-4.45-11.36-19.5.74-3.21h3.95l2.72-1.97.49-8.15-3.45-5.43-7.16-2.72-10.13-18.76-.49-21.98-2.72-3.2-8.39-2.72-5.18-4.69.74-1.73,8.88-5.68,1.24-2.96-2.4-12.72h-2.08l3.24,11.98-1.23,2.96-8.64,5.43-1.2401,3.46M913.1,838.81l3.95,15.8,2.96,2.96,11.85.25,5.43-8.4,5.68-3.21,9.13-.4901,10.37,2.96,5.9301,5.19,2.71,10.86,3.21,3.7,6.42,3.46,11.85,2.96,2.97,8.4h1.48l-2.72-8.64-2.71-1.98-9.14-1.73-7.65-3.7-2.22-2.72-2.72-10.86-6.67-6.17-8.88-2.96h-11.11l-5.93,2.96-6.66,9.63-8.65-.5-3.95-2.96-2.96-16.29.99-13.34-2.47-.74-.4901,15.56M916.8,230.23l.49.74,2.72.25,6.66,4.2-1.48-1.98,2.47-1.97-.74-2.23,1.98-.24-.5-3.46,1.98-1.73v-1.97l-3.95-.5-2.96-5.43,2.71-.24h1.48l-4.44-.25.4901,3.46,1.98,2.46,4.44,1.49-1.97,2.46.4901,3.21-2.22.5.74,2.47-2.72,1.73-4.44-2.47h-2.72l-.49-.5M956.3,193.45l.99,2.47,4.69-.99-.74-2.96-4.94,1.48M962.97,409.72l6.17,16.29,14.57,19.01,11.6,10.13,4.2,1.72,5.43-.74,10.37-5.92,29.6201-19.51,17.2899,7.9,6.41,1.24,3.46-2.47,1.98-7.9,2.4701-2.22,1.72,1.73-1.72,7.9.49,4.44,2.97,1.1v-1.34l-1,.24-.98-2.22,1.98-8.6v-1.37l-1.98-2.87-2.47-.49-2.2201,1.23-1.98,8.64-2.47,2.96-3.45-.49-15.5601-7.9-4.9399-.99-6.91,2.97-25.18,17.28-6.17,3.45-7.41,1.98-4.2-4.94-9.13-5.43-7.9-11.85-7.66-8.39-.98-2.97-.99-5.68-1.73-5.43-2.22-2.47-1.48,1.98M973.34,137.9l3.95,12.34,3.45-2.22-1.97-2.47-1.73-8.15,1.48.5.49-1.24-2.71-7.65-2.72.25-.24,8.64M976.55,96.42l3.21-.25,1.23,3.46-1.48-9.63h-1.48l-.5,2.47v-2.22l-.98,6.17M980,555.88l.74,1.23,9.14-.49.74-6.92-.99-2.96-3.46,1.73-.98-1.98-1.48.99.24,1.98-3.7,3.21-.25,3.21M1003.7,335.41l8.89,1.97,13.09,7.41,14.5599.49,11.11-4.94v-1.72l7.66-3.46,6.42.49v1.48l14.5699.44v-5.31l-3.71.43-9.38-1.97.24-6.67,2.23-5.19-1.73.75-1.48,4.19v6.17l-16.55,2.72-14.5599,7.16-9.88-1.48-17.28-9.38-4.2,6.42M1031.85,183.82l31.11-19.26,17.04-7.9v-43.72l-3.46,1.01-32.3501,11.36,1.2401-10.87-2.9701-10.86-4.4399-9.88v3.21l2.96,7.16h.99l1.98,8.64v7.9l-1.24,5.68-8.89,6.67-1.48-.25-.49,51.11Z" fill="#101820"/></g><g id="Water-Body-1"><path d="M848.17,577.85l-1.24-4.94,2.47-.74,1.23,5.18-2.46.5M618.56,299.85l-9.38-.24-.74-.99,9.38-1.48.99,1.23-.25,1.48Z" fill="rgba(16,24,32,.25)"/></g><g id="Arakan-Army-control-Fill"><path id="Arakan-Army-control" d="M0,3.5156v118.9092C0,122.7854.0646,123.143.1909,123.4806l5.4791,14.6594,49.2686,125.1625c.0674.1713.1504.3361.2479.4923l101.3235,162.3149c.1656.2653.3715.5032.6102.7052l49.1983,41.6293c1.0536.8915,2.5779.954,3.7009.1517l11.0535-7.8965c.561-.4008.9678-.9818,1.1525-1.6461l4.4708-16.082c.121-.4353.3383-.8378.6358-1.1779l18.382-21.0122c.1171-.1339.2222-.2779.3139-.4303l28.8302-47.892c.1076-.1788.2335-.3459.3757-.4987l19.1413-20.5757c.2609-.2804.5728-.5086.9191-.6723l25.7756-12.1855c.5599-.2647,1.1876-.3506,1.798-.246l15.5923,2.6709c.4922.0843,8.0566-.2023,8.5299-.3615l43.3061-16.7012c.1756-.0591.3562-.1019.5396-.1278l51.3542-7.2606c.4669-.066,24.6429-14.1513,25.0301-14.4204l67.9432-49.8094c.2955-.2054.6253-.3562.9739-.4454l36.2866-9.2813c.5465-.1398,1.1213-.1235,1.659.0471l18.2598,5.7919c.7426.2356,1.3653.7494,1.7375,1.4338l11.5261,21.195c.1614.2968.3715.5643.6215.7915l5.8956,5.3556c.2559.2324.5498.4192.869.552l7.7636,3.2312c.4238.1764.8017.4472,1.105.7918l11.9416,13.5684c.7263.8252.946,1.9803.5733,3.0146l-3.5051,9.7277c-.2211.6138-.6354,1.1392-1.1805,1.4976l-14.8209,9.7434c-.9865.6485-1.5038,1.8131-1.3238,2.9798l1.5771,10.2193c.0706.4575.0349.9251-.1042,1.3666l-2.1604,6.8537c-.3577,1.1346-1.349,1.953-2.5308,2.0892l-9.5421,1.0998c-.8614.0993-1.7238-.177-2.3672-.7584l-2.9754-2.6887c-.7509-.6786-1.7921-.9352-2.7723-.6833l-4.0315,1.0359c-1.6584.4261-2.6297,2.146-2.1383,3.7862h0c.3507,1.1706,1.3732,2.0138,2.5891,2.1352l10.649,1.0635c1.291.1289,2.3548,1.0691,2.6415,2.3345l1.5787,6.9696c.2469,1.0899-.1292,2.227-.9773,2.9548l-7.6998,6.6073c-.7962.6832-1.1801,1.7311-1.0136,2.767l1.9693,12.2561c.1412.8791.6637,1.6508,1.4275,2.1084l2.5043,1.5005c.7789.4667,1.7265.5576,2.5799.2475l7.8189-2.8413c1.0476-.3807,2.2198-.1525,3.048.5935l2.4967,2.2485c.6867.6185,1.0519,1.5177.991,2.4398l-.2903,4.3899c-.0647.978-.6007,1.8636-1.4371,2.3746l-6.1123,3.7334c-.8967.5477-1.4437,1.5228-1.4437,2.5735v4.8707c0,1.1233-.6243,2.1535-1.6201,2.6733l-8.7864,4.5866c-.6166.3219-1.103.847-1.3767,1.4864l-3.8718,9.0428c-.0963.2248-.1648.4605-.2041.7019l-3.3319,20.4439c-.0457.2804-.0515.5659-.0174.8479l3.7705,31.1085c.0828.6835.3971,1.3181.8905,1.7983l17.2448,16.7823c.1745.1698-.4265,2.7382-.2978,2.9449l13.0305,22.4381c.4221.6776.1796,1.7398,0,2.5177l-.3747,3.0177c-.2708,1.173,1.9576,2.0571.7732,2.2729l-13.3622,2.4347c-.6403.1167-1.2257.4374-1.6687.9142l-3.7591,4.046c-1.1043,1.1886-1.0703,3.0378.0769,4.185l1.8115,1.8115c.6751.6751,1.63.9906,2.5743.8507l23.2508-.982c.7316-.1084,1.4775.0558,2.0959.4615l12.6491,8.643c.4753.3118,5.7346.9793,6.3029.99l21.4322-2.0063c.8923.0167,1.7314.4278,2.2915,1.1227l10.8346,13.4423c.4039.5011.6368,1.1182.6649,1.7611l.9088,20.8472c.0249.5703.2111,1.1218.537,1.5904l6.3891,9.1874c.6247.8983,1.687,1.3878,2.7757,1.2789l13.0463-1.3038,43.7719-4.2641c1.1644-.1134,2.2893.4568,2.8861,1.4631l33.4465,56.3925c.0902.1521.1668.3118.229.4773l51.5627,137.1721c.4164,1.1077.1464,2.3567-.6904,3.1935l-101.3358,101.3358-35.0724,37.9926c-.3142.3403-.5457.7485-.6767,1.1927l-21.9628,74.4956c-.3339,1.1325.0238,2.3556.9153,3.1297l35.462,30.7942c.3963.3441.6959.7857.8692,1.2811l6.3731,18.2155c.1783.5097.2165,1.0578.1106,1.5873l-2.9168,14.5842c-.3732,1.866,1.0541,3.607,2.9571,3.607h348.5559c1.6655,0,3.0156-1.3501,3.0156-3.0156V3.5156c0-1.6655-1.3501-3.0156-3.0156-3.0156H3.0156C1.3501.5,0,1.8501,0,3.5156Z" fill="rgba(36,53,54,.75)"/></g><path id="Sittwe" d="M566.96,827.57l4.69-22.34-44.9301-14.94.4901-12.46,17.66.24-37.9-29.62,4.57-13.58-28.15-20.12,4.81-9.63,16.05,10.12,8.64-1.73,17.9,7.78,20.37-6.3,3.83,9.26,13.95-4.69,1.6-2.59,6.3-1.11,2.22,3.95,5.8.25,8.52,3.7,11.85-6.05,3.21-35.31-18.27-4.9301,4.69-14.08,17.03,11.86,14.82-3.21,11.85-7.66,3.95,14.07-6.42,21.24,26.42-14.82,15.06-28.14,6.91,15.18-13.33,25.1801,3.21,14.3199-1.73,5.07-22.71,65.91-16.05,18.27-1.48,18.03,6.91,33.2-72.34-24.32Z" fill="#fff" isolation="isolate" opacity=".1"/><g id="Adornments"><g id="Copyright" isolation="isolate"><text transform="translate(988.9952 1070.6898)" font-family="ArialMT, Arial" font-size="10"><tspan x="0" y="0"> </tspan></text></g></g><text transform="translate(315.9573 166.98)" fill="#717c7d" font-family="FranklinGothicURW-Boo, &apos;FranklinGothic URW&apos;" font-size="20"><tspan x="0" y="0">RATHEDAUNG</tspan><tspan x="14.9102" y="24">TOWNSHIP</tspan></text><text transform="translate(798.2075 294.62)" fill="#717c7d" font-family="FranklinGothicURW-Boo, &apos;FranklinGothic URW&apos;" font-size="20"><tspan x="0" y="0">PONNAGYUN</tspan><tspan x="9.6499" y="24">TOWNSHIP</tspan></text><text transform="translate(952.1498 614.3901)" fill="#717c7d" font-family="FranklinGothicURW-Boo, &apos;FranklinGothic URW&apos;" font-size="20"><tspan x="0" y="0">PAUKTAW</tspan><tspan x="-6.1499" y="24">TOWNSHIP</tspan></text><path d="M907.6553,135.9443h-5.3447l-1.5928-6.8291h-2.1318l-1.1348,6.8291h-5.1279l3.0225-18.0044h7.8281c1.917,0,3.2666.3242,4.2656.999,1.2676.8906,2.0234,2.4561,2.0234,4.2378,0,1.6733-.6738,3.1851-1.835,4.1841-.54.4585-1.0254.7017-1.9434,1.0527l1.9707,7.5308ZM901.2578,125.3633c1.1064,0,1.6191-.1079,2.1055-.459.4863-.3237.8096-.918.8096-1.4844,0-1.1338-.8369-1.7007-2.4561-1.7007h-1.8896l-.5938,3.644h2.0244Z" fill="#717c7d"/><path d="M917.7285,132.2734l-1.6738,3.6709h-4.4531l8.3135-18.0044h5.6416l2.8066,18.0044h-5.3164l-.4863-3.6709h-4.832ZM921.5078,123.3389l-2.375,5.2095h3.1035l-.7285-5.2095Z" fill="#717c7d"/><path d="M948.4785,135.9443h-5.3174l-2.0244-7.4229-2.7539,3.0498-.7285,4.373h-4.9932l3.0225-18.0044h4.9941l-.5664,3.3745-.8105,4.9126c.2969-.729.5137-1.0796,1.1074-1.8354.1348-.1621.4316-.5132.8633-1.0259.54-.6211,1.2422-1.4849,2.1055-2.5376l2.5645-2.8882h5.1562l-6.0742,6.8296,3.4551,11.1748Z" fill="#717c7d"/><path d="M958.9844,128.7104l-1.2148,7.2339h-5.209l3.0225-18.0044h5.21l-1.1074,6.6406h4.6699l1.1074-6.6406h5.2363l-3.0234,18.0044h-5.209l1.2148-7.2339h-4.6973Z" fill="#717c7d"/><path d="M978.8027,135.9443h-5.1016l3.0234-18.0044h5.1016l-3.0234,18.0044Z" fill="#717c7d"/><path d="M999.8867,135.9443h-3.9941l-3.4287-6.9102c-.9443-1.8623-1.5654-3.4282-1.7812-4.481l.0264.6748c0,.4053-.0801,1.1338-.2148,1.8896l-1.458,8.8267h-4.3994l3.0225-18.0044h4.832l1.9697,4.1572c1.377,2.915,2.3496,5.1826,2.6992,6.4243-.0527-.3779-.0527-.6479-.0527-.8638,0-.4053.1611-1.7007.3496-2.8882l1.1611-6.8296h4.292l-3.0234,18.0044Z" fill="#717c7d"/><path d="M1018.9766,135.9443h-13.2539l3.0234-18.0044h12.9023l-.6475,3.9409h-7.7197l-.459,2.8345h6.4785l-.6484,3.9141h-6.4785l-.5391,3.1851h8.043l-.7012,4.1299Z" fill="#717c7d"/><path d="M926.3535,155.7114c-.3242-1.1064-1.3496-1.7544-2.7539-1.7544-1.0791,0-1.7539.459-1.7539,1.1875,0,.5942.3516.8911,1.6738,1.3501q3.7246,1.3223,4.6699,1.9702c1.4033.9985,2.0781,2.2676,2.0781,3.8872,0,3.7246-3.2129,6.2622-7.9355,6.2622-2.376,0-4.4541-.5938-6.0742-1.7544-1.1064-.8101-1.7266-1.647-2.3477-3.2661l5.1816-.999c.541,1.3228,1.5391,1.8896,3.3477,1.8896,1.2959,0,2.0781-.5132,2.0781-1.3496,0-.2432-.1074-.4858-.2969-.6748-.1885-.189-.4043-.2969-.5938-.3779l-3.5352-1.2959c-2.7266-.9985-4.0225-2.5371-4.0225-4.8584,0-1.8359.8643-3.5361,2.2939-4.562,1.2422-.8906,2.8613-1.3228,4.9668-1.3228,2.2139,0,3.9688.4858,5.3984,1.4849,1.1875.8096,1.7549,1.5923,2.2676,2.9961l-4.6426,1.1875Z" fill="#717c7d"/><path d="M941.7441,168.3442h-5.2363l2.3486-13.9282h-3.8604l.7021-4.1299h13.0107l-.6748,4.1299h-3.9678l-2.3223,13.9282Z" fill="#717c7d"/><path d="M953.7344,164.6733l-1.6738,3.6709h-4.4541l8.3135-18.0044h5.6416l2.8076,18.0044h-5.3184l-.4854-3.6709h-4.8311ZM957.5127,155.7388l-2.376,5.2095h3.1055l-.7295-5.2095Z" fill="#717c7d"/><path d="M975.1973,168.3442h-5.2363l2.3486-13.9282h-3.8604l.7021-4.1299h13.0107l-.6748,4.1299h-3.9678l-2.3223,13.9282Z" fill="#717c7d"/><path d="M996.6885,168.3442h-13.2529l3.0225-18.0044h12.9033l-.6484,3.9409h-7.7197l-.459,2.8345h6.4775l-.6465,3.9141h-6.4785l-.541,3.1851h8.0449l-.7021,4.1299Z" fill="#717c7d"/><text transform="translate(173.9198 884.7301)" fill="#bcbec0" font-family="GeorgiaPro-CondSemiBoldItalic, &apos;Georgia Pro&apos;" font-size="20" font-style="italic" font-weight="600"><tspan x="0" y="0">Bay of Bengal</tspan></text><g id="Hillshading-1" opacity=".1"><image width="1080" height="1080" transform="translate(0 .5)" xlink:href="sittwe-abandoned-villages-2-3.png" isolation="isolate"/></g><g id="Abandoned-villages-kml-polygons-Outline"><path id="Pa-Lin-Pyin-1-1" d="M279.22,531.43l.37-9.01,5.8-1.11,3.08,9.01-9.25,1.11Z" fill="none" stroke="#bf9788" stroke-linecap="round" stroke-linejoin="round"/><path id="Aung-Daing-1" d="M346.74,502.3l-6.17,1.85-7.9-10.74.49-2.1-4.2-5.92-3.82-10.86,1.48-5.43,2.47-.62,5.67,14.56,11.98,19.26Z" fill="none" stroke="#bf9788" stroke-linecap="round" stroke-linejoin="round"/><path id="Pa-Lin-Pyin-2-1" d="M296.62,522.55l3.33-.74,3.95,11.6-2.59.9901-4.69-11.85Z" fill="none" stroke="#bf9788" stroke-linecap="round" stroke-linejoin="round"/><path id="Ohn-Yae-Paw-1" d="M370.19,400.46l5.8-2.72.87,4.33-4.82.74-1.85-2.35Z" fill="none" stroke="#bf9788" stroke-linecap="round" stroke-linejoin="round"/><path id="Ye-Chan-Pyin-1" d="M386.61,410.34l9.75,7.77,6.42-3.58-8.27-9.75-4.94-2.22-2.96,7.78Z" fill="none" stroke="#bf9788" stroke-linecap="round" stroke-linejoin="round"/><path id="Kyet-Taw-Pyin-1" d="M385.38,451.69l.49,3.95-2.59.62-4.32-2.72-2.22-6.91,1.85-2.47,4.56-.86,2.6,6.54-.37,1.85Z" fill="none" stroke="#bf9788" stroke-linecap="round" stroke-linejoin="round"/><path id="Kant-Kaw-Kyun-1" d="M588.69,565.75l-5.43-6.54-.99-2.84h-4.57l-.37-1.98,11.73-5.92,3.95,10,1.36-1.36h1.97l2.47,2.1-.74,3.08-6.79.25-.25,2.72-2.34.49Z" fill="none" stroke="#bf9788" stroke-linecap="round" stroke-linejoin="round"/><path id="Thin-Pone-Dan-1" d="M464.13,523.9l-.61-4.56-4.2-5.06-1.73-9.88-2.96.25-2.59-5.68-4.32-.87-4.45-14.44-8.52-18.76v-5.8l8.4.61,2.84,17.66,6.17,14.81,4.69,1.73,4.81,10.74,7.41,1.35-1.97,6.55,1.6,5.31-1.73,6.04h-2.84Z" fill="none" stroke="#bf9788" stroke-linecap="round" stroke-linejoin="round"/><path id="Pyar-Lay-Chaung-1" d="M453.27,487.36l-1.36-15.43,3.09-7.65,3.08.12-1.6,11.61,1.23,11.23-4.44.12Z" fill="none" stroke="#bf9788" stroke-linecap="round" stroke-linejoin="round"/><path id="Thein-Tan-1" d="M543.88,506.62l-2.97-4.81-1.11-9.63,4.32-4.2,5.31,8.52-3.33,4.32,2.59,4.44-4.81,1.36Z" fill="none" stroke="#bf9788" stroke-linecap="round" stroke-linejoin="round"/><path id="Kyar-Ma-Thauk-1" d="M513.63,469.47l3.34-12.6,8.88-1.6,2.35,11.23-.74,11.36-13.83-8.39Z" fill="none" stroke="#bf9788" stroke-linecap="round" stroke-linejoin="round"/><path id="Taw-Kan-1" d="M574.99,499.96l.61-14.08-1.73-2.71-.37-3.34,3.21-.49,1.36-4.07-.62-2.84,4.2-2.84h1.98l.74,4.32,3.58,3.09-5.93,3.7,1.98,2.84-7.16,17.03-1.85-.61Z" fill="none" stroke="#bf9788" stroke-linecap="round" stroke-linejoin="round"/><path id="Chi-Lai-Pha-1" d="M589.06,337.88l-3.58-.99,2.84-4.57-1.36-4.44,1.48-3.95,3.46,1.97,2.84-.37,1.35-2.72-2.84-5.8,6.3,1.73,4.81-.74.25,5.8-5.8.99-8.89,5.06-.62,1.98,3.21,3.45-3.45,1.11v1.49Z" fill="none" stroke="#bf9788" stroke-linecap="round" stroke-linejoin="round"/><path id="Kyauktan-Gyi-1" d="M527.09,404.16l-10.9901-1.35-10-18.03,5.07-.86,3.7,9.01h9.75l2.47,11.23Z" fill="none" stroke="#bf9788" stroke-linecap="round" stroke-linejoin="round"/><path id="Kywe-De-1" d="M492.9,376.27l-16.05-5.07-3.95-11.6,4.81-5.31-3.7-4.93,13.7-8.77,3.95,1.24v9.5l-4.2,3.58,9.14,16.17-3.7,5.19Z" fill="none" stroke="#bf9788" stroke-linecap="round" stroke-linejoin="round"/><path id="Kyauk-Tan-Chay-1" d="M532.03,439.96l.24-3.45,4.69-3.95,6.3.49-.12,13.46-4.69,2.22-2.84-6.92-3.58-1.85Z" fill="none" stroke="#bf9788" stroke-linecap="round" stroke-linejoin="round"/><path id="Byaing-Phyu-1" d="M664.48,687.84l2.1,5.55-7.28,4.2-1.48,6.05-.99-5.19-5.19.62-1.6,1.48-1.36-4.32,15.8-8.39Z" fill="none" stroke="#bf9788" stroke-linecap="round" stroke-linejoin="round"/><path id="Kyay-Taw-1" d="M666.46,680.31l2.22-4.94,6.17-2.35,3.21-8.02-2.22-1.61-.9901,1.98-1.85.12.49-9.13,6.3.49,7.65,2.96-6.29,13.34-2.47-.5-4.32,10.87-5.93,1.72.99-3.95-2.96-.98Z" fill="none" stroke="#bf9788" stroke-linecap="round" stroke-linejoin="round"/><path id="Nga-Tauk-Tak-1" d="M584.74,414.78v-10.62l-3.21-3.95-2.22-.12-2.6-14.44.5-2.35,3.58,1.73,1.23,5.06,3.33-.62,5.19,21.73-2.35-.37.25,5.55-1.6,2.23-2.1-3.83Z" fill="none" stroke="#bf9788" stroke-linecap="round" stroke-linejoin="round"/><path id="Old-Kan-Pyin-1" d="M665.1,608.83l4.2,1.98-2.23,4.44-4.56-.37,2.59-6.05Z" fill="none" stroke="#bf9788" stroke-linecap="round" stroke-linejoin="round"/><path id="New-Kan-Pyin-1" d="M648.43,631.92l9.39-10.74,2.22,1.36-9.75,10.36-1.86-.98Z" fill="none" stroke="#bf9788" stroke-linecap="round" stroke-linejoin="round"/><path id="Thone-Soung-1" d="M631.15,618.09l2.84-2.1,2.96,1.85,4.2.37.25,1.61-4.32-.37-.37,2.1-1.73.24-2.96-.86-.87-2.84Z" fill="none" stroke="#bf9788" stroke-linecap="round" stroke-linejoin="round"/><path id="Chaung-Nwe-1" d="M681.89,587.48l-1.85.12-.87-4.44-3.95-.74,1.85-10.25,1.48.49.74-6.42.87-.86,1.97,2.47-.24,19.63Z" fill="none" stroke="#bf9788" stroke-linecap="round" stroke-linejoin="round"/><path id="Zaw-Ma-Dauk-1" d="M654.11,559.7l.74-2.47,4.45,2.1-.25,2.96-1.11,2.23-1.85-1.11-1.98-3.71Z" fill="none" stroke="#bf9788" stroke-linecap="round" stroke-linejoin="round"/><path id="Kyan-Taw-1" d="M575.85,485.76l7.04-.12-2.23,3.45-1.97,10.62-2.1.86-2.1-.49,1.36-14.32Z" fill="none" stroke="#bf9788" stroke-linecap="round" stroke-linejoin="round"/><path id="Ra-Tan-1" d="M556.84,516.62l-.25-7.78,2.35.5.49-1.48,2.22-.25,1.98.99-.12,1.35-2.84-.86-1.12,1.61,3.21,3.08,2.47,5.43-3.33,1.98-5.06-4.57Z" fill="none" stroke="#bf9788" stroke-linecap="round" stroke-linejoin="round"/></g><g isolation="isolate"><path d="M567.541,687.4482h5.2012c1.4805,0,2.2002.1602,2.9404.6797.8604.6006,1.3799,1.6211,1.3799,2.7812,0,1.54-.8594,2.5801-2.4199,2.96.7793.1602,1.1406.3008,1.5801.6406.8203.5996,1.2598,1.54,1.2598,2.6602,0,1.0205-.3994,2.001-1.0801,2.6406-.7197.6807-1.6406.9805-3.04.9805h-5.8213v-13.3428ZM572.7422,693.0498c1.1797,0,1.9404-.7607,1.9404-1.9209,0-1.0801-.7803-1.7803-1.9805-1.7803h-2.8809v3.7012h2.9209ZM572.9219,698.791c1.3008,0,2.1211-.7402,2.1211-1.9209,0-1.1406-.8408-1.9199-2.1016-1.9199h-3.1201v3.8408h3.1006Z" fill="#aeceb5"/><path d="M583.1211,702.1709c-.5195,1.5205-1.3203,2.1807-2.6797,2.1807-.2812,0-.8008-.04-1.2812-.0801v-1.7598c.4004.0195.8008.0195,1.1006.0195.6602,0,1.0801-.1797,1.2998-.5596.1602-.2607.4199-1.001.4199-1.1611,0-.0596-.0801-.2998-.1992-.6201l-3.3809-9.2617h2.3203l2.4004,6.5215,2.0605-6.5215h1.7803l-3.8408,11.2422Z" fill="#aeceb5"/><path d="M594.4414,700.791c-.1992-.7197-.2793-1.1602-.3398-2-.6797,1.54-1.7002,2.2002-3.3398,2.2002-1.9209,0-3.2617-1.2402-3.2617-3.0205,0-1.541.9805-2.6006,2.8408-3.0605,1.04-.2607,2.001-.3408,3.7607-.3408v-.7402c0-1.0195-.6992-1.5195-2.0996-1.5195-1.3613,0-2.041.46-2.2812,1.5195l-1.9004-.2793c.1602-.9609.5205-1.5205,1.3008-2.041.8203-.5596,1.7598-.7803,3.1602-.7803,1.7012,0,2.7402.3408,3.3809,1.0811.5.5596.6201,1.0996.6201,2.54v4.4414c0,.6396.1006,1.2598.2998,2h-2.1406ZM594.1016,695.7695c-2.8398,0-4.3203.7002-4.3203,2.0605,0,.9209.6602,1.4805,1.7402,1.4805,1.54,0,2.5801-1.0605,2.5801-2.6406v-.9004Z" fill="#aeceb5"/><path d="M598.9404,689.7686v-2.3203h2.2197v2.3203h-2.2197ZM598.9404,700.791v-9.8623h2.2197v9.8623h-2.2197Z" fill="#aeceb5"/><path d="M609.7813,700.791v-6.1611c0-1.2002-.5996-1.9609-1.54-1.9609-.7402,0-1.4404.4805-1.8203,1.2207-.2402.4805-.3604,1.0801-.3604,1.8398v5.0615h-2.2207v-9.8623h2.0215v2.2803c.8193-1.7803,1.6797-2.4805,3.0195-2.4805,1.1406,0,2.2607.6006,2.7012,1.4609.2998.5801.4199,1.2197.4199,2.2402v6.3613h-2.2207Z" fill="#aeceb5"/><path d="M623.582,690.749h-.6797c-.8008,0-1.0801.1602-1.4414.7998.8408.7207,1.1602,1.3008,1.1602,2.1406,0,1.7607-1.6396,3.0205-3.9805,3.0205-.5801,0-1-.0596-1.8604-.2598-.5.2598-.6797.5-.6797.9404,0,.5996.5205,1,1.3398,1h2.9404c1.9209,0,3.2207,1.1006,3.2207,2.7002,0,2.001-1.96,3.2412-5.1406,3.2412s-4.7812-.9004-4.7812-2.6807c0-.9404.3604-1.4404,1.4404-2.001-.7002-.6201-.9199-1-.9199-1.6201,0-.9004.4404-1.4805,1.5801-2.0605-1-.6602-1.3799-1.2803-1.3799-2.2598,0-.7402.2998-1.4609.8594-1.9609.7207-.7002,1.7607-1.0205,3.2412-1.0205.6602,0,1.0596.04,1.8799.2002.3604-1.3203,1.0605-1.8799,2.3613-1.8799h.8398v1.7002ZM617.6807,700.4912c-.5596,0-.8799-.04-1.6006-.2402-.3594.3398-.4805.54-.4805.8604,0,1.04,1.2812,1.7002,3.3418,1.7002,1.6992,0,2.5801-.46,2.5801-1.3203,0-.6006-.5801-1-1.4805-1h-2.3604ZM616.7012,693.7695c0,.9805.7188,1.6201,1.8203,1.6201,1.1191,0,1.8203-.5996,1.8203-1.5605,0-1.0801-.6406-1.7002-1.7812-1.7002-1.1201,0-1.8594.6602-1.8594,1.6406Z" fill="#aeceb5"/><path d="M583.1406,720.791v-13.3428h5.4609c1.2803,0,2,.1797,2.8008.6602,1.1602.7402,1.8008,1.9199,1.8008,3.3408,0,2.3799-1.8008,4.0605-4.3213,4.0605h-3.3408v5.2812h-2.4004ZM588.3818,713.4492c1.4199,0,2.2998-.7598,2.2998-1.9805,0-.54-.2402-1.1602-.5996-1.4805-.3809-.3594-1-.54-1.9199-.54h-2.6211v4.001h2.8408Z" fill="#aeceb5"/><path d="M600.7822,720.791v-6.4609c0-1.2402-.54-1.9004-1.5205-1.9004-.7402,0-1.4609.4395-1.8008,1.0801-.2998.5596-.4199,1.2402-.4199,2.1602v5.1211h-2.2207v-13.3428h2.2207v5.2012c.6201-1.4805,1.5205-2.1406,2.9414-2.1406,1.1797,0,2.04.4404,2.54,1.2607.3604.6396.4795,1.1602.4795,2.2402v6.7812h-2.2197Z" fill="#aeceb5"/><path d="M608.8418,722.1709c-.5205,1.5205-1.3203,2.1807-2.6807,2.1807-.2803,0-.7998-.04-1.2803-.0801v-1.7598c.4004.0195.7998.0195,1.0996.0195.6602,0,1.0801-.1797,1.3008-.5596.1602-.2607.4199-1.001.4199-1.1611,0-.0596-.0801-.2998-.2002-.6201l-3.3799-9.2617h2.3203l2.4004,6.5215,2.0605-6.5215h1.7793l-3.8398,11.2422Z" fill="#aeceb5"/><path d="M620.2012,720.791v-2.1406c-.2793.8408-.5195,1.2002-1.04,1.6201-.5801.4805-1.2803.7207-2.0811.7207-1.0596,0-1.8594-.4004-2.4199-1.2002-.3594-.54-.5-1.0605-.5-1.9609v-6.9014h2.2803v6.4219c0,.5195.0596.8203.2002,1.0801.2402.4004.7207.6602,1.2002.6602.7803,0,1.6006-.5801,1.9209-1.3809.2197-.5.2998-1.0596.2998-2.04v-4.7412h2.2197v9.8623h-2.0801Z" fill="#aeceb5"/></g><g isolation="isolate"><path d="M741.6826,571.6904l-2.0801-5.4814h-3.3809v5.4814h-2.4004v-13.3428h5.7812c1.6006,0,2.6201.2998,3.4805,1.04.7803.6807,1.2002,1.6602,1.2002,2.8809,0,1.7207-.7402,2.8203-2.4004,3.541l2.3398,5.8809h-2.54ZM739.2227,564.2891c1.6406,0,2.5605-.7402,2.5605-2.0605,0-1.2002-.9004-1.9609-2.3613-1.9609h-3.2002v4.0215h3.001Z" fill="#bf9788"/><path d="M752.623,571.6904c-.2012-.7197-.2812-1.1602-.3398-2-.6807,1.54-1.7012,2.2002-3.3418,2.2002-1.9199,0-3.2598-1.2402-3.2598-3.0205,0-1.541.9795-2.6006,2.8398-3.0605,1.041-.2607,2-.3408,3.7617-.3408v-.7402c0-1.0195-.7012-1.5195-2.1016-1.5195-1.3594,0-2.04.46-2.2803,1.5195l-1.9004-.2793c.1602-.9609.5205-1.5205,1.2998-2.041.8203-.5596,1.7617-.7803,3.1611-.7803,1.7002,0,2.7412.3408,3.3809,1.0811.5.5596.6201,1.0996.6201,2.54v4.4414c0,.6396.0996,1.2598.3008,2h-2.1406ZM752.2832,566.6689c-2.8418,0-4.3223.7002-4.3223,2.0605,0,.9209.6602,1.4805,1.7412,1.4805,1.54,0,2.5811-1.0605,2.5811-2.6406v-.9004Z" fill="#bf9788"/><path d="M763.9629,571.6904l-2.5215-5.0615-2.1797,2.4609v2.6006h-2.1406v-13.3428h2.1406v8.2812c.1992-.2793.2998-.3799.4395-.5596l3.9014-4.2412h2.4004l-2.96,3.2607,3.2598,6.6016h-2.3398Z" fill="#bf9788"/><path d="M773.6816,571.6904v-6.4609c0-1.2402-.54-1.9004-1.5195-1.9004-.7402,0-1.4609.4395-1.8008,1.0801-.3008.5596-.4199,1.2402-.4199,2.1602v5.1211h-2.2207v-13.3428h2.2207v5.2012c.6191-1.4805,1.5195-2.1406,2.9404-2.1406,1.1807,0,2.04.4404,2.54,1.2607.3604.6396.4805,1.1602.4805,2.2402v6.7812h-2.2207Z" fill="#bf9788"/><path d="M778.5605,560.668v-2.3203h2.2207v2.3203h-2.2207ZM778.5605,571.6904v-9.8623h2.2207v9.8623h-2.2207Z" fill="#bf9788"/><path d="M789.4023,571.6904v-6.1611c0-1.2002-.5996-1.9609-1.541-1.9609-.7402,0-1.4395.4805-1.8203,1.2207-.2402.4805-.3594,1.0801-.3594,1.8398v5.0615h-2.2207v-9.8623h2.0205v2.2803c.8193-1.7803,1.6807-2.4805,3.0205-2.4805,1.1406,0,2.2598.6006,2.7012,1.4609.2988.5801.4199,1.2197.4199,2.2402v6.3613h-2.2207Z" fill="#bf9788"/><path d="M802.5625,568.8096c-.6602,2.001-2.1816,3.0811-4.3809,3.0811-2.7617,0-4.541-2.001-4.541-5.1016,0-3.0801,1.8594-5.1611,4.6406-5.1611,2.8398,0,4.4209,1.9209,4.4414,5.4014h-6.7617v.2803c.0195,1.8008.8799,2.8203,2.3604,2.8203,1.1396,0,1.7607-.46,2.2197-1.6006l2.0215.2803ZM800.4219,565.5889c-.041-.7402-.1602-1.0801-.5-1.54-.4199-.5605-1-.8604-1.7207-.8604-1.2598,0-2.0605.8398-2.2402,2.4004h4.4609Z" fill="#bf9788"/><path d="M737.7822,591.6904h-1.8604l-3.4209-9.8623h2.3203l2.3008,6.6816,2.2607-6.6816h1.7402l-3.3408,9.8623Z" fill="#bf9788"/><path d="M742.541,580.668v-2.3203h2.2207v2.3203h-2.2207ZM742.541,591.6904v-9.8623h2.2207v9.8623h-2.2207Z" fill="#bf9788"/><path d="M747.4414,591.6904v-13.3428h2.2197v13.3428h-2.2197Z" fill="#bf9788"/><path d="M752.3408,591.6904v-13.3428h2.2197v13.3428h-2.2197Z" fill="#bf9788"/><path d="M763.542,591.6904c-.2002-.7197-.2803-1.1602-.3398-2-.6807,1.54-1.7002,2.2002-3.3408,2.2002-1.9199,0-3.2607-1.2402-3.2607-3.0205,0-1.541.9795-2.6006,2.8408-3.0605,1.04-.2607,2-.3408,3.7607-.3408v-.7402c0-1.0195-.7002-1.5195-2.1006-1.5195-1.3604,0-2.041.46-2.2812,1.5195l-1.9004-.2793c.1602-.9609.5215-1.5205,1.3008-2.041.8203-.5596,1.7607-.7803,3.1602-.7803,1.7012,0,2.7412.3408,3.3809,1.0811.5.5596.6211,1.0996.6211,2.54v4.4414c0,.6396.0996,1.2598.2998,2h-2.1406ZM763.2021,586.6689c-2.8408,0-4.3213.7002-4.3213,2.0605,0,.9209.6602,1.4805,1.7402,1.4805,1.541,0,2.5811-1.0605,2.5811-2.6406v-.9004Z" fill="#bf9788"/><path d="M776.9629,581.6484h-.6807c-.7998,0-1.0801.1602-1.4404.7998.8398.7207,1.1602,1.3008,1.1602,2.1406,0,1.7607-1.6406,3.0205-3.9805,3.0205-.5801,0-1-.0596-1.8613-.2598-.5.2598-.6797.5-.6797.9404,0,.5996.5205,1,1.3398,1h2.9414c1.9199,0,3.2207,1.1006,3.2207,2.7002,0,2.001-1.9609,3.2412-5.1406,3.2412-3.1816,0-4.7812-.9004-4.7812-2.6807,0-.9404.3594-1.4404,1.4395-2.001-.6992-.6201-.9199-1-.9199-1.6201,0-.9004.4404-1.4805,1.5801-2.0605-1-.6602-1.3799-1.2803-1.3799-2.2598,0-.7402.2998-1.4609.8604-1.9609.7207-.7002,1.7598-1.0205,3.2402-1.0205.6602,0,1.0605.04,1.8809.2002.3594-1.3203,1.0605-1.8799,2.3604-1.8799h.8408v1.7002ZM771.0605,591.3906c-.5596,0-.8799-.04-1.5996-.2402-.3604.3398-.4805.54-.4805.8604,0,1.04,1.2803,1.7002,3.3408,1.7002,1.7002,0,2.5811-.46,2.5811-1.3203,0-.6006-.5801-1-1.4805-1h-2.3613ZM770.0811,584.6689c0,.9805.7197,1.6201,1.8203,1.6201,1.1201,0,1.8203-.5996,1.8203-1.5605,0-1.0801-.6396-1.7002-1.7803-1.7002-1.1211,0-1.8604.6602-1.8604,1.6406Z" fill="#bf9788"/><path d="M786.4414,588.8096c-.6602,2.001-2.1797,3.0811-4.3809,3.0811-2.7598,0-4.541-2.001-4.541-5.1016,0-3.0801,1.8613-5.1611,4.6416-5.1611,2.8408,0,4.4209,1.9209,4.4404,5.4014h-6.7617v.2803c.0205,1.8008.8809,2.8203,2.3613,2.8203,1.1406,0,1.7598-.46,2.2207-1.6006l2.0195.2803ZM784.3008,585.5889c-.0391-.7402-.1592-1.0801-.5-1.54-.4199-.5605-1-.8604-1.7197-.8604-1.2607,0-2.0605.8398-2.2412,2.4004h4.4609Z" fill="#bf9788"/><path d="M789.5801,589.0303c.4199.8799.9805,1.2002,2.1807,1.2002,1.2607,0,2.001-.4404,2.001-1.2207,0-.4805-.4199-.8604-1.0801-.9805l-1.8008-.3594c-2.041-.3809-2.9805-1.3008-2.9805-2.9014,0-.7793.2793-1.5195.7793-2.0596.6807-.7402,1.6406-1.0811,3.0215-1.0811,2.04,0,3.3398.7803,3.8008,2.2812l-2.001.4199c-.2598-.8008-.7803-1.1201-1.7998-1.1201-1.0605,0-1.7402.4199-1.7402,1.0596,0,.5801.4199.9209,1.4199,1.1201l2.1201.4404c1.6406.3203,2.4814,1.3008,2.4814,2.8604,0,1.9609-1.6816,3.2012-4.3018,3.2012-1.2607,0-2.3408-.3203-3.1611-.9199-.5195-.4004-.7793-.7803-1.0195-1.541l2.0801-.3994Z" fill="#bf9788"/></g><g id="Byaing_Phyu"><circle id="circle" cx="635.1" cy="679.32" r="7.5" fill="#aeceb5" isolation="isolate" stroke="#2b4135" stroke-width="1.5"/></g><g id="_2"><text transform="translate(406.2816 588.9716)" font-size="20" isolation="isolate"><tspan x="0" y="0" fill="#cccccb" font-family="FranklinGothicURW-Med, &apos;FranklinGothic URW&apos;" letter-spacing="-.012em">R</tspan><tspan x="12.6201" y="0" fill="#cccccb" font-family="FranklinGothicURW-Med, &apos;FranklinGothic URW&apos;" letter-spacing=".003em">e</tspan><tspan x="23.1597" y="0" fill="#cccccb" font-family="FranklinGothicURW-Med, &apos;FranklinGothic URW&apos;">siden</tspan><tspan x="69.1992" y="0" fill="#cccccb" font-family="FranklinGothicURW-Med, &apos;FranklinGothic URW&apos;" letter-spacing=".013em">t</tspan><tspan x="75.8989" y="0" fill="#cccccb" font-family="FranklinGothicURW-Med, &apos;FranklinGothic URW&apos;">s of </tspan><tspan x="111.8789" y="0" fill="#bf9788" font-family="FranklinGothicURW-Hea, &apos;FranklinGothic URW&apos;" letter-spacing=".002em">a</tspan><tspan x="123.6587" y="0" fill="#bf9788" font-family="FranklinGothicURW-Hea, &apos;FranklinGothic URW&apos;">t </tspan><tspan fill="#bf9788" font-family="FranklinGothicURW-Hea, &apos;FranklinGothic URW&apos;"><tspan x="0" y="20">l</tspan><tspan x="5.8999" y="20" letter-spacing="-.002em">e</tspan><tspan x="17.5996" y="20" letter-spacing=".005em">as</tspan><tspan x="40.1392" y="20">t 20 vill</tspan><tspan x="108.8984" y="20" letter-spacing=".005em">a</tspan><tspan x="120.7378" y="20" letter-spacing="-.005em">g</tspan><tspan x="132.0181" y="20" letter-spacing=".003em">e</tspan><tspan x="143.8174" y="20">s </tspan></tspan><tspan fill="#cccccb" font-family="FranklinGothicURW-Med, &apos;FranklinGothic URW&apos;"><tspan x="0" y="40" letter-spacing="-.01em">w</tspan><tspan x="13.7402" y="40">e</tspan><tspan x="24.2202" y="40" letter-spacing="-.006em">r</tspan><tspan x="30.7202" y="40">e </tspan><tspan x="46.1997" y="40" letter-spacing="-.01em">f</tspan><tspan x="52.3198" y="40">o</tspan><tspan x="62.8994" y="40" letter-spacing="-.005em">r</tspan><tspan x="69.4194" y="40" letter-spacing=".004em">c</tspan><tspan x="78.8193" y="40">ed f</tspan><tspan x="111.3789" y="40" letter-spacing="-.006em">r</tspan><tspan x="117.8784" y="40">om </tspan></tspan><tspan fill="#cccccb" font-family="FranklinGothicURW-Med, &apos;FranklinGothic URW&apos;"><tspan x="0" y="60" letter-spacing="-.009em">t</tspan><tspan x="6.2603" y="60">heir hom</tspan><tspan x="82.9194" y="60" letter-spacing=".003em">e</tspan><tspan x="93.459" y="60">s in</tspan><tspan x="123.2588" y="60" letter-spacing="-.018em">t</tspan><tspan x="129.3389" y="60" letter-spacing="0em">o </tspan></tspan><tspan fill="#cccccb" font-family="FranklinGothicURW-Med, &apos;FranklinGothic URW&apos;"><tspan x="0" y="80">u</tspan><tspan x="10.7798" y="80" letter-spacing="-.005em">r</tspan><tspan x="17.2998" y="80">ban Si</tspan><tspan x="70.999" y="80" letter-spacing=".008em">t</tspan><tspan x="77.5986" y="80" letter-spacing=".01em">t</tspan><tspan x="84.2383" y="80" letter-spacing="-.01em">w</tspan><tspan x="97.9785" y="80">e </tspan></tspan></text><path d="M520.915,685.24c-.5531,4.1335-.6957,8.3116-.5741,12.4708.1357,4.1588.5364,8.314,1.335,12.394,1.444,8.1878,4.4059,16.0796,8.5944,23.2089,4.2177,7.1149,9.7645,13.4336,16.3013,18.4644,6.5363,5.0339,13.9816,8.8452,21.8295,11.3114l-.6039,1.8621c-8.009-2.6898-15.5549-6.7449-22.134-12.0201-6.5793-5.2717-12.1012-11.8228-16.2397-19.1269-4.1095-7.3188-6.9374-15.3492-8.2296-23.6151-.7228-4.1198-1.0432-8.3009-1.0977-12.4736-.0404-4.1729.1848-8.3537.8187-12.4759Z" fill="#cccccb"/><polygon points="559.1691 769.4811 558.364 767.6483 567.3969 763.6923 562.7909 754.9713 564.5618 754.0381 570.1693 764.6604 559.1691 769.4811" fill="#cccccb"/></g><line x1="680.0425" y1="576.49" x2="724.4775" y2="576.49" fill="none" stroke="#bf9788" stroke-miterlimit="10"/></svg>